<svg xmlns="http://www.w3.org/2000/svg" viewBox="0 0 600 600"><defs><style>.cls-1{opacity:0.75;}.cls-2{fill:#001cc9;}.cls-3{fill:#fff;}.cls-10,.cls-11,.cls-4,.cls-5,.cls-6,.cls-7,.cls-8{fill:none;}.cls-4{stroke:#fff;}.cls-10,.cls-11,.cls-4,.cls-5,.cls-6,.cls-7,.cls-8,.cls-9{stroke-miterlimit:10;}.cls-10,.cls-4,.cls-5{stroke-width:8px;}.cls-5{stroke:#563304;}.cls-6,.cls-7,.cls-8,.cls-9{stroke:#000;}.cls-6{stroke-width:5px;}.cls-7{stroke-width:3px;}.cls-10{stroke:#a5acce;}.cls-11{stroke:#d3cdcb;stroke-width:7px;}</style></defs><g id="Artboard_3" data-name="Artboard 3"><g class="cls-1"><path class="cls-2" d="M300,594.21A294.2,294.2,0,0,1,92,92,294.2,294.2,0,1,1,508,508,292.26,292.26,0,0,1,300,594.21Z"/><path d="M300,8.3A291.77,291.77,0,0,1,413.54,568.78,291.78,291.78,0,0,1,186.46,31.22,289.86,289.86,0,0,1,300,8.3m0-5C136.13,3.3,3.3,136.13,3.3,300S136.13,596.7,300,596.7,596.7,463.87,596.7,300,463.87,3.3,300,3.3Z"/></g><path class="cls-3" d="M131.48,493.23c0,2.64-2,3.73-4,3.73a3.44,3.44,0,0,1-3.74-3.73v-59.7H103.27c-2.46,0-3.37-1.36-3.37-3.36s.91-3.19,3.37-3.19h49c2.46,0,3.37,1.18,3.37,3.19s-.91,3.36-3.37,3.36H131.48Z"/><path class="cls-3" d="M183.62,463.47c0-5.64-3-8.64-10.28-8.64-7.46,0-10.19,3.09-11.92,7.91a3.23,3.23,0,0,1-3.1,2.19c-1.91,0-3.64-1.09-3.64-3.19a5.58,5.58,0,0,1,.19-1.27c1.82-5.73,7.18-11.19,18.56-11.19,10.47,0,16.84,3.45,16.84,14.28V483.4c0,3.64.45,6.19,1.36,7.92a6.57,6.57,0,0,1,.55,2.37c0,1.81-2.19,3.18-4,3.18a3.33,3.33,0,0,1-2.82-1.91,17.58,17.58,0,0,1-1.27-4.1c-4,3.83-8.74,6.65-17,6.65-8.83,0-14.83-4.83-14.83-13.56,0-8.19,4.73-12.65,14.56-15.29a95.1,95.1,0,0,1,16.83-2.73Zm0,7.83a68.14,68.14,0,0,0-16,2.91c-5.19,1.64-8.65,4.55-8.65,9.74,0,4.91,3.73,8,9.37,8s10.83-2.55,15.29-7.65Z"/><path class="cls-3" d="M210.38,493.69a3.42,3.42,0,0,1-6.83,0v-64a3.42,3.42,0,0,1,6.83,0Z"/><path class="cls-3" d="M230.94,493.59a3.21,3.21,0,0,1-3.46,3.37,3.07,3.07,0,0,1-3.27-3.37V429.71a3,3,0,0,1,3.27-3.28,3.19,3.19,0,0,1,3.46,3.28V467c0,2-.09,4.46-.09,6.55l22.66-22.66a3.33,3.33,0,0,1,2.46-1.09,4,4,0,0,1,3.64,3.46,3.47,3.47,0,0,1-1.19,2.37l-14.74,13.74,16.47,22a3.87,3.87,0,0,1,.82,2.28,3.36,3.36,0,0,1-3.46,3.27,3.61,3.61,0,0,1-2.91-1.55L239,473.66l-8,7.47Z"/><path class="cls-3" d="M270.8,474.48c-2.28,0-2.91-1.27-2.91-2.73s.63-2.64,2.91-2.64h14.47c2.18,0,2.91,1.19,2.91,2.64s-.73,2.73-2.91,2.73Z"/><path class="cls-3" d="M321.76,463.29c-14.93-3.37-21.11-8-21.11-19.75,0-10.65,8.73-17.65,22.47-17.65,12.2,0,20.3,5.37,22.66,15.65a8.2,8.2,0,0,1,.18,1.37c0,2.27-1.63,3.54-3.82,3.54a3.39,3.39,0,0,1-3.73-2.91c-1.73-7.92-6.55-11.28-15.2-11.28-9.1,0-15.1,3.64-15.1,11.28s4.73,10.56,16.47,13l3.18.72c14.93,3.46,20.48,8.83,20.48,20.93,0,11.47-9.65,19.3-24.3,19.3-15.92,0-23.2-8.38-24.93-16.47a19.38,19.38,0,0,1-.37-2.55c0-2.37,1.73-3.46,3.92-3.46,1.91,0,3.45.64,3.82,3.09,1,8.38,7.37,13,17.56,13,9.92,0,16.84-4.83,16.84-12.93s-4.19-11.55-15.84-14.19Z"/><path class="cls-3" d="M388.73,463.47c0-5.64-3-8.64-10.28-8.64-7.46,0-10.19,3.09-11.92,7.91a3.23,3.23,0,0,1-3.1,2.19c-1.91,0-3.64-1.09-3.64-3.19a5.58,5.58,0,0,1,.19-1.27c1.82-5.73,7.19-11.19,18.56-11.19,10.47,0,16.84,3.45,16.84,14.28V483.4c0,3.64.45,6.19,1.36,7.92a6.57,6.57,0,0,1,.55,2.37c0,1.81-2.19,3.18-4,3.18a3.33,3.33,0,0,1-2.82-1.91,18.07,18.07,0,0,1-1.27-4.1c-4,3.83-8.74,6.65-17,6.65-8.83,0-14.83-4.83-14.83-13.56,0-8.19,4.73-12.65,14.56-15.29a95.1,95.1,0,0,1,16.83-2.73Zm0,7.83a68.14,68.14,0,0,0-16,2.91c-5.19,1.64-8.65,4.55-8.65,9.74,0,4.91,3.73,8,9.37,8s10.83-2.55,15.29-7.65Z"/><path class="cls-3" d="M415,493.59a3.21,3.21,0,0,1-3.46,3.37,3.07,3.07,0,0,1-3.27-3.37V429.71a3,3,0,0,1,3.27-3.28,3.19,3.19,0,0,1,3.46,3.28V467c0,2-.09,4.46-.09,6.55l22.66-22.66a3.33,3.33,0,0,1,2.46-1.09,4,4,0,0,1,3.64,3.46,3.47,3.47,0,0,1-1.19,2.37l-14.74,13.74,16.47,22a3.87,3.87,0,0,1,.82,2.28A3.36,3.36,0,0,1,441.6,497a3.61,3.61,0,0,1-2.91-1.55L423,473.66l-8,7.47Z"/><path class="cls-3" d="M458,474.85c.55,11.56,6.46,17.11,14.29,17.11,6.1,0,9.65-3.1,12.1-8.92a3.2,3.2,0,0,1,2.92-2.28c1.72,0,3.82,1.19,3.82,3.1a4.16,4.16,0,0,1-.37,1.73c-3.55,7.19-8.91,11.92-18.47,11.92-13.56,0-21-10.47-21-24.21,0-13.56,7.64-24,21.11-24,13.65,0,19.38,12.37,19.38,19.74,0,4-1.27,5.83-5.36,5.83Zm25.76-5.46c.91,0,1.36-.64,1.36-1.55a6.14,6.14,0,0,0-.18-1.36c-1.46-6.56-5.37-11.65-12.56-11.65-7.46,0-12.92,5.18-14.2,14.56Z"/><path class="cls-3" d="M98,508.15V503.6H495.38v4.55Z"/><line class="cls-4" x1="254.68" y1="200.02" x2="345.99" y2="200.02"/><line class="cls-4" x1="252.52" y1="379.68" x2="345.12" y2="380.96"/><path class="cls-5" d="M346.57,230.41c.27,7.43,5,140.14.13,158.59a21.72,21.72,0,0,1-5.32,9.54c-5.82,5.49-14.36,5.6-19.59,5.11"/><path class="cls-5" d="M314,26.19v49.9a288.26,288.26,0,0,0,5,36.09,318.09,318.09,0,0,0,8.44,32.24c7.2,23.33,10.39,26.53,14.2,40.31a147.26,147.26,0,0,1,5,45.68"/><path class="cls-5" d="M285.5,26V75.9a287.67,287.67,0,0,1-5,36.09,317.47,317.47,0,0,1-8.41,32.24C265,167.56,261.77,170.75,258,184.54c-2.81,10.18-9,31.46-8.16,51.63"/><polyline class="cls-5" points="285.5 30 298.85 30 298.85 30.19 313.94 30.19"/><path class="cls-5" d="M249.82,236.17C248.72,265,247.07,372.61,252,389a24.83,24.83,0,0,0,5.32,9.54c5.82,5.49,59.26,5.6,64.49,5.11"/><line class="cls-5" x1="285.5" y1="51.91" x2="313.95" y2="51.53"/><g id="microphone"><polyline class="cls-6" points="274 259.62 274 327.49 321.29 327.49 321.29 259.62 274 259.62 274 214 321.29 214 321.29 259.62"/><path class="cls-7" d="M262.61,271.14c0,69.42.92,67.62,38.95,67.62,30.61,0,31.54,0,31.54-68.52"/><path class="cls-7" d="M278.87,371.84c15.72,0,21.47.54,37.42.54,18.43,0-5.55-32.28-17.35-33.62-.5-.06.09-.08-.41-.07C284.84,339,266.08,371.84,278.87,371.84Z"/><circle class="cls-8" cx="297.85" cy="275.86" r="4.34"/><circle class="cls-9" cx="262.61" cy="270.98" r="3.8"/><circle class="cls-9" cx="333.1" cy="270.98" r="3.8"/></g><path class="cls-10" d="M423,175c0-2.42,23.54-6.16,41.08-6.82,20.76-.79,46.34,2.18,46.64,6.25s-23,9.72-44.79,9.39C447.09,183.48,423,181.35,423,175Z"/><path class="cls-10" d="M423.15,175.09l-14.06,78.5c-1.69,24,21.48,44.64,51.08,47.68,2.42.24,4.89.38,7.4.38,32.31.06,59.4-20.89,58.85-46.36l-15.87-81.37"/><path class="cls-10" d="M413.53,397.21c.21-4.54,28.8-7.8,50-8,25-.2,55.76,3.8,55.89,8.54.11,4.52-27.64,9.67-52.19,9.66C441.42,407.44,413.32,401.73,413.53,397.21Z"/><polyline class="cls-10" points="472.86 301.66 472.75 389.15 459.8 389.15 460.17 301.37"/><path class="cls-11" d="M100,289.79a2.52,2.52,0,0,1,0-.38c1.15-6.57,25.89-11.79,48.53-11.39,22,.39,49,6.21,48.89,11.77S170.56,299.86,149.53,300C127.48,300.08,100.12,295.38,100,289.79Z"/><path class="cls-11" d="M119.33,393a46.16,46.16,0,0,0,55,1.88l-2.55-39.23a146.79,146.79,0,0,1-50.16-1.88Q120.45,373.41,119.33,393Z"/><path class="cls-11" d="M197.61,290.08c-.54,12.76-1.07,24.9-1.6,37.66-1.62,4.33-5.77,24.49-23.64,27.31s-36.43.94-51.12-1.88c-15-2.88-18.72-19.4-20.77-24.17-.11-12.24-.21-27-.32-39.23"/></g></svg>