<svg xmlns="http://www.w3.org/2000/svg" viewBox="0 0 500 150"><defs><style>.cls-1{opacity:0.75;}.cls-2{fill:#001cc9;}.cls-3{font-size:70px;font-family:YuKyo_Yoko-Medium-83pv-RKSJ-H, YuKyokasho Yoko;text-decoration:underline;}.cls-4{letter-spacing:-0.1em;}.cls-10,.cls-5,.cls-6,.cls-7,.cls-9{fill:none;}.cls-5{stroke:#fff;}.cls-10,.cls-5,.cls-6,.cls-7,.cls-8,.cls-9{stroke-miterlimit:10;}.cls-10,.cls-5,.cls-6,.cls-9{stroke-width:2px;}.cls-6{stroke:#563304;}.cls-7,.cls-8{stroke:#000;}.cls-9{stroke:#a5acce;}.cls-10{stroke:#d3cdcb;}</style></defs><g id="Artboard_6" data-name="Artboard 6"><g class="cls-1"><path class="cls-2" d="M80.14,144.46A69.37,69.37,0,1,1,149.5,75.09,69.45,69.45,0,0,1,80.14,144.46Z"/><path d="M80.14,8.23A66.87,66.87,0,1,1,13.27,75.09,66.94,66.94,0,0,1,80.14,8.23m0-5A71.87,71.87,0,1,0,152,75.09,71.86,71.86,0,0,0,80.14,3.23Z"/></g><text class="cls-3" transform="translate(163.16 99.8)"><tspan class="cls-4">T</tspan><tspan x="38.78" y="0">alk-Sake</tspan></text><line class="cls-5" x1="66.16" y1="62.88" x2="88.27" y2="62.88"/><line class="cls-5" x1="65.63" y1="106.39" x2="88.06" y2="106.7"/><path class="cls-6" d="M88.42,70.24c.06,1.8,1.2,33.94,0,38.41A5.3,5.3,0,0,1,87.16,111a6.1,6.1,0,0,1-4.75,1.24"/><path class="cls-6" d="M80.51,20.78V32.86a70.33,70.33,0,0,0,1.21,8.74,77,77,0,0,0,2,7.81c1.74,5.65,2.51,6.43,3.44,9.76a36,36,0,0,1,1.21,11.07"/><path class="cls-6" d="M73.62,20.73V32.82a68.18,68.18,0,0,1-1.2,8.74,75.53,75.53,0,0,1-2,7.81C68.65,55,67.88,55.79,67,59.13c-.68,2.46-2.17,7.62-2,12.5"/><polyline class="cls-6" points="73.62 21.7 76.86 21.7 76.86 21.74 80.51 21.74"/><path class="cls-6" d="M65,71.63c-.27,7-.67,33.05.52,37A6.15,6.15,0,0,0,66.79,111c1.41,1.33,14.36,1.36,15.62,1.24"/><line class="cls-6" x1="73.62" y1="27" x2="80.51" y2="26.91"/><g id="microphone"><polyline class="cls-7" points="70.84 77.31 70.84 93.75 82.29 93.75 82.29 77.31 70.84 77.31 70.84 66.26 82.29 66.26 82.29 77.31"/><path class="cls-7" d="M68.08,80.1c0,16.82.22,16.38,9.43,16.38,7.42,0,7.64,0,7.64-16.59"/><path class="cls-7" d="M72,104.49c3.8,0,5.2.13,9.06.13,4.47,0-1.34-7.81-4.2-8.14-.12,0,0,0-.1,0C73.46,96.53,68.92,104.49,72,104.49Z"/><circle class="cls-7" cx="76.61" cy="81.25" r="1.05"/><circle class="cls-8" cx="68.08" cy="80.07" r="0.92"/><circle class="cls-8" cx="85.15" cy="80.07" r="0.92"/></g><path class="cls-9" d="M106.92,55.81c0-.59,5.7-1.5,10-1.66,5-.19,11.22.53,11.3,1.52S122.6,58,117.32,57.94C112.76,57.87,106.92,57.36,106.92,55.81Z"/><path class="cls-9" d="M107,55.84l-3.4,19c-.41,5.82,5.2,10.82,12.37,11.55a17.73,17.73,0,0,0,1.79.09c7.83,0,14.39-5.06,14.26-11.22l-3.85-19.71"/><path class="cls-9" d="M104.63,109.64c.05-1.1,7-1.89,12.11-1.93,6.06,0,13.5.92,13.53,2.07s-6.69,2.34-12.64,2.34C111.39,112.12,104.58,110.73,104.63,109.64Z"/><polyline class="cls-9" points="119 86.5 118.98 107.69 115.84 107.69 115.93 86.42"/><path class="cls-10" d="M28.69,83.62a.44.44,0,0,1,0-.09C29,81.94,35,80.67,40.46,80.77c5.33.09,11.87,1.5,11.84,2.85s-6.52,2.44-11.61,2.47C35.35,86.11,28.72,85,28.69,83.62Z"/><path class="cls-10" d="M33.38,108.63a11.18,11.18,0,0,0,13.31.45l-.62-9.5a35.37,35.37,0,0,1-5.81.3,34.62,34.62,0,0,1-6.34-.76Z"/><path class="cls-10" d="M52.34,83.69c-.13,3.09-.26,6-.39,9.12-.39,1-1.4,5.93-5.73,6.62A36.8,36.8,0,0,1,33.84,99c-3.63-.7-4.53-4.7-5-5.85,0-3,0-6.54-.08-9.5"/></g></svg>